<svg width="69" height="36" viewBox="0 0 69 36" fill="none" xmlns="http://www.w3.org/2000/svg">
<path d="M0.776093 35.0511V34.6069H1.26656C1.46719 34.6069 1.60125 34.5755 1.66906 34.5121C1.73687 34.4491 1.77078 34.3279 1.77078 34.1488V29.1102C1.77078 28.9344 1.73672 28.815 1.66906 28.7516C1.60125 28.6886 1.46703 28.6568 1.26656 28.6568H0.776093V28.208H4.56547C5.13922 28.208 5.60187 28.3625 5.95359 28.6707C6.30531 28.9793 6.48109 29.385 6.48109 29.8875C6.48109 30.3813 6.30687 30.7699 5.95828 31.0535C5.60968 31.3375 5.08547 31.5161 4.38515 31.5902C4.76765 31.643 5.06453 31.766 5.27578 31.9603C5.48703 32.1547 5.63593 32.4402 5.72234 32.8163L5.97687 33.885C6.02609 34.1044 6.08484 34.263 6.15265 34.3616C6.22047 34.4607 6.30375 34.5097 6.4025 34.5097C6.52906 34.5097 6.62297 34.4307 6.68468 34.2714C6.7464 34.1127 6.78187 33.8619 6.79109 33.5196L7.15203 33.5149C7.15203 33.5427 7.15359 33.5807 7.15672 33.6282C7.15969 33.6763 7.1614 33.711 7.1614 33.7322C7.1614 34.2107 7.06187 34.5785 6.86297 34.8357C6.66406 35.0933 6.38109 35.2221 6.0139 35.2221C5.66218 35.2221 5.40015 35.1219 5.22734 34.9213C5.05453 34.721 4.94047 34.3754 4.885 33.8849L4.78328 32.9364C4.73703 32.508 4.60219 32.2004 4.37844 32.0133C4.15469 31.8269 3.79937 31.7333 3.31187 31.7333H2.80297V34.1485C2.80297 34.3275 2.83609 34.4488 2.9025 34.5118C2.9689 34.5752 3.09922 34.6066 3.29344 34.6066H3.88109V35.0508H0.776093V35.0511ZM2.80265 29.0546V31.28L3.26531 31.2985C3.30531 31.3018 3.34797 31.3039 3.3925 31.3054C3.43719 31.3072 3.50281 31.3077 3.58906 31.3077C4.22765 31.3077 4.69031 31.2013 4.97719 30.9885C5.26406 30.7757 5.4075 30.4305 5.4075 29.9521C5.4075 29.4833 5.29109 29.1471 5.05812 28.9435C4.82515 28.7399 4.43875 28.6382 3.89906 28.6382H3.28375C3.0925 28.6382 2.96453 28.6655 2.89968 28.7191C2.835 28.7733 2.80265 28.8854 2.80265 29.0546Z" fill="#404041"/>
<path d="M7.54062 35.0511V34.6069H8.03109C8.23171 34.6069 8.36593 34.5755 8.43359 34.5121C8.5014 34.4491 8.53531 34.3279 8.53531 34.1488V29.1102C8.53531 28.9344 8.50124 28.815 8.43359 28.7516C8.36577 28.6886 8.23156 28.6568 8.03109 28.6568H7.54062V28.208H13.0836L13.2039 30.6279H12.7967C12.7381 30.2332 12.6517 29.8944 12.5377 29.6122C12.4236 29.33 12.2894 29.1213 12.1351 28.9854C11.9841 28.8622 11.7742 28.7735 11.5059 28.7193C11.2376 28.6655 10.8598 28.6383 10.3723 28.6383C10.0084 28.6383 9.78312 28.6693 9.69687 28.7308C9.61062 28.7929 9.56734 28.9191 9.56734 29.1102V31.2802H9.70155C10.192 31.2802 10.542 31.1839 10.7519 30.991C10.9617 30.7985 11.088 30.4585 11.1312 29.9708H11.5292V32.9875H11.1312C11.088 32.4971 10.9631 32.158 10.7564 31.9696C10.5498 31.7818 10.1981 31.6874 9.7014 31.6874H9.56718V34.1489C9.56718 34.3464 9.61343 34.4769 9.70593 34.5399C9.79843 34.6033 10.0453 34.6347 10.4462 34.6347C10.8905 34.6347 11.2491 34.6158 11.522 34.5769C11.795 34.5385 12.0178 34.476 12.1906 34.3896C12.3972 34.285 12.5708 34.0805 12.7111 33.7764C12.8516 33.4729 12.9755 33.0324 13.0836 32.4555H13.4445L13.3011 35.0511H7.54062Z" fill="#404041"/>
<path d="M17.1367 28.0967H17.5069L19.922 34.1301C20.0024 34.3276 20.0856 34.4564 20.1719 34.5165C20.2581 34.5767 20.3924 34.6067 20.5744 34.6067C20.5928 34.6067 20.6236 34.6053 20.6669 34.602C20.7102 34.5992 20.7425 34.5973 20.7641 34.5973V35.0507H17.9324V34.5973H18.2933C18.531 34.5973 18.6866 34.5796 18.7606 34.544C18.8347 34.5089 18.8717 34.4431 18.8717 34.3475C18.8717 34.3104 18.8641 34.2637 18.8486 34.2064C18.8331 34.1495 18.8116 34.0856 18.7838 34.0143L18.3488 32.8253H15.7994L15.5078 33.5609C15.4678 33.6628 15.4355 33.7668 15.4106 33.8732C15.3858 33.9796 15.3736 34.0653 15.3736 34.13C15.3736 34.2845 15.4322 34.4006 15.5494 34.4793C15.6667 34.5579 15.8392 34.5973 16.0677 34.5973H16.3036V35.0507H13.8563V34.5973H13.9349C14.1877 34.5973 14.382 34.544 14.5178 34.4376C14.6536 34.3312 14.7845 34.1193 14.9111 33.8014L17.1367 28.0967ZM18.1778 32.3395L17.0535 29.5911L15.9708 32.3395H18.1778Z" fill="#404041"/>
<path d="M20.9862 35.0511V34.6069H21.4767C21.6773 34.6069 21.8114 34.5755 21.8792 34.5121C21.947 34.4491 21.9809 34.3279 21.9809 34.1488V29.1102C21.9809 28.9344 21.9469 28.815 21.8792 28.7516C21.8114 28.6886 21.6772 28.6568 21.4767 28.6568H20.9862V28.208H24.0076V28.6568H23.5033C23.3089 28.6568 23.1787 28.6877 23.1123 28.7493C23.0459 28.8113 23.0128 28.9316 23.0128 29.1102V34.1488C23.0128 34.3432 23.0561 34.4713 23.1423 34.5329C23.2286 34.5949 23.4539 34.6254 23.8178 34.6254C24.3083 34.6254 24.6883 34.5975 24.9583 34.5421C25.2283 34.4866 25.4356 34.3972 25.5806 34.2738C25.7409 34.135 25.8806 33.9129 25.9994 33.6075C26.118 33.3022 26.2192 32.9089 26.3025 32.4277H26.668L26.5292 35.0511H20.9862Z" fill="#404041"/>
<path d="M29.8283 35.0511V34.6069H30.3187C30.5194 34.6069 30.6534 34.5755 30.7212 34.5121C30.7891 34.4491 30.823 34.3279 30.823 34.1488V29.1102C30.823 28.9344 30.7889 28.815 30.7212 28.7516C30.6534 28.6886 30.5192 28.6568 30.3187 28.6568H29.8283V28.208H35.3712L35.4916 30.6279H35.0844C35.0258 30.2332 34.9394 29.8944 34.8253 29.6122C34.7112 29.33 34.577 29.1213 34.4228 28.9854C34.2717 28.8622 34.0619 28.7735 33.7936 28.7193C33.5252 28.6655 33.1475 28.6383 32.66 28.6383C32.2961 28.6383 32.0708 28.6693 31.9845 28.7308C31.8983 28.7929 31.855 28.9191 31.855 29.1102V31.2802H31.9892C32.4797 31.2802 32.8297 31.1839 33.0395 30.991C33.2494 30.7985 33.3756 30.4585 33.4189 29.9708H33.8169V32.9875H33.4189C33.3756 32.4971 33.2508 32.158 33.0442 31.9696C32.8377 31.7818 32.4859 31.6874 31.9892 31.6874H31.855V34.1489C31.855 34.3464 31.9012 34.4769 31.9937 34.5399C32.0862 34.6033 32.3331 34.6347 32.7341 34.6347C33.1783 34.6347 33.5369 34.6158 33.8098 34.5769C34.0828 34.5385 34.3056 34.476 34.4784 34.3896C34.685 34.285 34.8586 34.0805 34.9989 33.7764C35.1394 33.4729 35.2633 33.0324 35.3714 32.4555H35.7323L35.5889 35.0511H29.8283Z" fill="#404041"/>
<path d="M37.4441 34.5095L37.0461 35.1665H36.713L36.6667 32.4181H37.0553C37.1972 33.1955 37.4625 33.7862 37.8511 34.1901C38.2397 34.5945 38.7394 34.7962 39.3502 34.7962C39.8561 34.7962 40.2494 34.6769 40.53 34.4376C40.8106 34.1989 40.9511 33.8662 40.9511 33.4406C40.9511 33.2434 40.9148 33.0681 40.8423 32.9154C40.7698 32.7628 40.6672 32.6373 40.5347 32.5384C40.3589 32.4153 39.9825 32.2794 39.4058 32.1312C39.2237 32.085 39.0819 32.0479 38.9802 32.0201C38.0762 31.7767 37.4758 31.5098 37.178 31.2197C36.8802 30.93 36.7314 30.5164 36.7314 29.9797C36.7314 29.3939 36.9142 28.9256 37.2797 28.5754C37.6452 28.2256 38.1364 28.0503 38.7533 28.0503C39.0987 28.0503 39.4212 28.1058 39.7203 28.2169C40.0194 28.328 40.2878 28.4931 40.5253 28.712L40.8908 28.1429H41.2423L41.3487 30.6045H40.9786C40.7997 29.9012 40.5236 29.3723 40.1503 29.0175C39.7772 28.6631 39.3112 28.4854 38.753 28.4854C38.3366 28.4854 38.0142 28.585 37.7859 28.7839C37.5577 28.9828 37.4436 29.2661 37.4436 29.6329C37.4436 30.1947 38.0158 30.6158 39.1602 30.8961C39.2681 30.9211 39.3516 30.9409 39.41 30.9562C39.9437 31.089 40.3198 31.2056 40.5389 31.3056C40.758 31.4061 40.9461 31.5272 41.1034 31.6689C41.2886 31.842 41.4303 32.0529 41.5291 32.3028C41.6278 32.5526 41.6772 32.8275 41.6772 33.1264C41.6772 33.7926 41.473 34.3086 41.0641 34.674C40.6553 35.0395 40.0778 35.2223 39.3313 35.2223C38.9641 35.2223 38.6148 35.1598 38.2833 35.035C37.9523 34.9097 37.6725 34.7348 37.4441 34.5095Z" fill="#404041"/>
<path d="M45.8188 34.1485C45.8188 34.3275 45.8519 34.4488 45.9183 34.5117C45.9847 34.5752 46.1166 34.6066 46.3139 34.6066H46.92V35.0508H43.6813V34.6066H44.2873C44.4847 34.6066 44.6175 34.5752 44.6853 34.5117C44.7531 34.4488 44.787 34.3275 44.787 34.1485V29.0728C44.787 28.8692 44.7569 28.7346 44.6969 28.668C44.6367 28.6019 44.4586 28.5685 44.1625 28.5685C43.7369 28.5685 43.413 28.7346 43.1908 29.0658C42.9688 29.3975 42.8005 29.9875 42.6864 30.8356H42.3255L42.455 28.2075H48.1414L48.2848 30.8356H47.9239C47.7914 29.926 47.6116 29.3203 47.3848 29.0196C47.1581 28.7188 46.7827 28.5685 46.2581 28.5685C46.0853 28.5685 45.9689 28.6027 45.9087 28.6702C45.8486 28.7381 45.8186 28.8724 45.8186 29.0727V34.1485H45.8188Z" fill="#404041"/>
<path d="M51.8106 28.0967H52.1808L54.5961 34.1301C54.6764 34.3276 54.7597 34.4564 54.8459 34.5165C54.9322 34.5767 55.0664 34.6067 55.2484 34.6067C55.2669 34.6067 55.2977 34.6053 55.3409 34.602C55.3842 34.5992 55.4166 34.5973 55.4381 34.5973V35.0507H52.6064V34.5973H52.9673C53.205 34.5973 53.3606 34.5796 53.4347 34.544C53.5088 34.5089 53.5458 34.4431 53.5458 34.3475C53.5458 34.3104 53.5381 34.2637 53.5227 34.2064C53.5072 34.1495 53.4856 34.0856 53.4578 34.0143L53.0228 32.8253H50.4734L50.1819 33.5609C50.1419 33.6628 50.1095 33.7668 50.0847 33.8732C50.06 33.9796 50.0477 34.0653 50.0477 34.13C50.0477 34.2845 50.1063 34.4006 50.2234 34.4793C50.3408 34.5579 50.5133 34.5973 50.7416 34.5973H50.9775V35.0507H48.5298V34.5973H48.6084C48.8613 34.5973 49.0556 34.544 49.1914 34.4376C49.3272 34.3312 49.4581 34.1193 49.5847 33.8014L51.8106 28.0967ZM52.8517 32.3395L51.7273 29.5911L50.6447 32.3395H52.8517Z" fill="#404041"/>
<path d="M59.1812 34.1485C59.1812 34.3275 59.2144 34.4488 59.2808 34.5117C59.3472 34.5752 59.4791 34.6066 59.6764 34.6066H60.2825V35.0508H57.0436V34.6066H57.6497C57.847 34.6066 57.9798 34.5752 58.0477 34.5117C58.1155 34.4488 58.1494 34.3275 58.1494 34.1485V29.0728C58.1494 28.8692 58.1192 28.7346 58.0592 28.668C57.9991 28.6019 57.8209 28.5685 57.5248 28.5685C57.0992 28.5685 56.7753 28.7346 56.5531 29.0658C56.3311 29.3975 56.1628 29.9875 56.0487 30.8356H55.6878L55.8173 28.2075H61.5037L61.6472 30.8356H61.2862C61.1537 29.926 60.9739 29.3203 60.7472 29.0196C60.5205 28.7188 60.145 28.5685 59.6205 28.5685C59.4476 28.5685 59.3312 28.6027 59.2711 28.6702C59.2109 28.7381 59.1809 28.8724 59.1809 29.0727V34.1485H59.1812Z" fill="#404041"/>
<path d="M62.3322 35.0511V34.6069H62.8227C63.0233 34.6069 63.1573 34.5755 63.2252 34.5121C63.293 34.4491 63.3269 34.3279 63.3269 34.1488V29.1102C63.3269 28.9344 63.2928 28.815 63.2252 28.7516C63.1573 28.6886 63.0231 28.6568 62.8227 28.6568H62.3322V28.208H67.8752L67.9955 30.6279H67.5883C67.5297 30.2332 67.4433 29.8944 67.3292 29.6122C67.2152 29.33 67.0809 29.1213 66.9267 28.9854C66.7756 28.8622 66.5658 28.7735 66.2975 28.7193C66.0291 28.6655 65.6514 28.6383 65.1639 28.6383C64.8 28.6383 64.5747 28.6693 64.4884 28.7308C64.4022 28.7929 64.3589 28.9191 64.3589 29.1102V31.2802H64.4931C64.9836 31.2802 65.3336 31.1839 65.5434 30.991C65.7533 30.7985 65.8795 30.4585 65.9228 29.9708H66.3208V32.9875H65.9228C65.8795 32.4971 65.7547 32.158 65.548 31.9696C65.3414 31.7818 64.9897 31.6874 64.4931 31.6874H64.3589V34.1489C64.3589 34.3464 64.4052 34.4769 64.4977 34.5399C64.5902 34.6033 64.837 34.6347 65.238 34.6347C65.6822 34.6347 66.0408 34.6158 66.3137 34.5769C66.5867 34.5385 66.8095 34.476 66.9823 34.3896C67.1889 34.285 67.3625 34.0805 67.5028 33.7764C67.6433 33.4729 67.7672 33.0324 67.8753 32.4555H68.2362L68.0928 35.0511H62.3322Z" fill="#404041"/>
<path fill-rule="evenodd" clip-rule="evenodd" d="M20.6374 9.60303L14.5552 15.6854L26.3222 15.3274L20.6374 9.60303Z" fill="url(#paint0_linear_205_6)"/>
<path fill-rule="evenodd" clip-rule="evenodd" d="M47.2456 2.92432L40.4348 10.1104L54.0037 9.68697L47.2456 2.92432Z" fill="url(#paint1_linear_205_6)"/>
<path fill-rule="evenodd" clip-rule="evenodd" d="M49.4189 10.0405L43.4163 16.0033L55.0647 15.6855L49.4189 10.0405Z" fill="url(#paint2_linear_205_6)"/>
<path fill-rule="evenodd" clip-rule="evenodd" d="M48.3555 0.563965L36.0361 4.34865L29.813 10.7933L29.8264 10.7977L32.6464 13.7177L35.9397 13.6811L48.3555 0.563965Z" fill="url(#paint3_linear_205_6)"/>
<path fill-rule="evenodd" clip-rule="evenodd" d="M55.1575 4.61621L54.9739 4.6884L53.7112 5.18246V5.86855L55.0803 7.30215L55.1575 7.38355V4.61621Z" fill="url(#paint4_linear_205_6)"/>
<path fill-rule="evenodd" clip-rule="evenodd" d="M57.1 5.18277L55.1578 4.61621V7.38355L57.1 9.41809V5.18277Z" fill="url(#paint5_linear_205_6)"/>
<path fill-rule="evenodd" clip-rule="evenodd" d="M48.6578 1.19141L47.6652 2.2486L56.9725 11.9373V13.9833H60.8747L48.6578 1.19141Z" fill="url(#paint6_linear_205_6)"/>
<path fill-rule="evenodd" clip-rule="evenodd" d="M14.5061 11.0054L14.6497 11.0619L15.6316 11.4455V11.9783L14.5672 13.0937L14.5061 13.1568V11.0054Z" fill="url(#paint7_linear_205_6)"/>
<path fill-rule="evenodd" clip-rule="evenodd" d="M12.9966 11.4455L14.5063 11.0059V13.1568L12.9966 14.7379V11.4455Z" fill="url(#paint8_linear_205_6)"/>
<path fill-rule="evenodd" clip-rule="evenodd" d="M19.5263 8.39697L20.3017 9.21088L13.0959 16.6957L13.4139 20.8673L3.86313 22.4912L12.9269 20.3368L12.2244 17.9515H10.3598L19.5263 8.39697Z" fill="url(#paint9_linear_205_6)"/>
<path d="M20.2992 14.4785H19.1014V15.6771H20.2992V14.4785Z" fill="url(#paint10_linear_205_6)"/>
<path d="M21.9072 14.4785H20.7091V15.6771H21.9072V14.4785Z" fill="url(#paint11_linear_205_6)"/>
<path d="M20.2992 16.0732H19.1014V17.2709H20.2992V16.0732Z" fill="url(#paint12_linear_205_6)"/>
<path d="M21.9072 16.0732H20.7091V17.2709H21.9072V16.0732Z" fill="url(#paint13_linear_205_6)"/>
<path fill-rule="evenodd" clip-rule="evenodd" d="M54.2142 12.7344V13.3152L56.7203 15.8219V15.3592L54.2142 12.7344Z" fill="#6D6E70"/>
<path fill-rule="evenodd" clip-rule="evenodd" d="M50.5274 8.86768L49.7702 9.64658L56.6258 16.7683L56.3081 20.8672L65.1369 22.7419L56.7617 20.3895L57.398 18.2816H59.5117L50.5274 8.86768Z" fill="url(#paint14_linear_205_6)"/>
<path fill-rule="evenodd" clip-rule="evenodd" d="M19.7939 7.85547L29.3688 10.7975L35.4298 17.0744L41.1438 11.1562L50.2541 8.3575L41.6522 17.2494V18.0575H28.7084V17.2494L19.7939 7.85547Z" fill="url(#paint15_linear_205_6)"/>
<path fill-rule="evenodd" clip-rule="evenodd" d="M30.3481 10.7882L36.242 4.6848L47.0816 1.35449L35.7738 13.3014L32.8061 13.3343L30.3481 10.7882Z" fill="url(#paint16_linear_205_6)"/>
<path fill-rule="evenodd" clip-rule="evenodd" d="M29.09 17.6762V17.0975L21.0711 8.64795L29.1624 11.1337L35.4299 17.6236L41.3497 11.493L48.9486 9.15779L41.2708 17.095V17.6762H29.09Z" fill="url(#paint17_linear_205_6)"/>
<path d="M50.7631 14.6592H49.6244V15.799H50.7631V14.6592Z" fill="url(#paint18_linear_205_6)"/>
<path d="M49.2261 14.6592H48.0866V15.799H49.2261V14.6592Z" fill="url(#paint19_linear_205_6)"/>
<path d="M50.7631 16.1836H49.6244V17.3234H50.7631V16.1836Z" fill="url(#paint20_linear_205_6)"/>
<path d="M49.2261 16.1836H48.0866V17.3234H49.2261V16.1836Z" fill="url(#paint21_linear_205_6)"/>
<path d="M3.86673 23.6208C3.86438 23.6213 3.86157 23.6215 3.85907 23.6223C9.38907 22.5729 14.9517 21.7633 20.5575 21.2512C25.2105 20.8262 29.8727 20.6923 34.5414 20.5824C42.5558 20.3937 50.6791 20.8948 58.5605 22.3941C60.7695 22.8144 62.963 23.3179 65.1408 23.8782C58.2764 22.2907 51.3586 21.7748 44.3225 21.4768C41.0636 21.3387 37.8067 21.3279 34.5459 21.3269C29.8877 21.4105 25.2367 21.5796 20.5888 21.8987C14.9817 22.3137 9.41688 22.7174 3.86673 23.6208Z" fill="url(#paint22_linear_205_6)"/>
<defs>
<linearGradient id="paint0_linear_205_6" x1="20.4387" y1="13.4989" x2="20.4387" y2="8.30411" gradientUnits="userSpaceOnUse">
<stop stop-color="white" stop-opacity="0"/>
<stop offset="0.1651" stop-color="#FAFAFA" stop-opacity="0.1651"/>
<stop offset="0.3705" stop-color="#EAEBEB" stop-opacity="0.3705"/>
<stop offset="0.5971" stop-color="#D1D2D3" stop-opacity="0.5971"/>
<stop offset="0.8373" stop-color="#AEB0B2" stop-opacity="0.8373"/>
<stop offset="1" stop-color="#929497"/>
</linearGradient>
<linearGradient id="paint1_linear_205_6" x1="47.2193" y1="7.52718" x2="47.2193" y2="1.38966" gradientUnits="userSpaceOnUse">
<stop stop-color="white" stop-opacity="0"/>
<stop offset="0.1651" stop-color="#FAFAFA" stop-opacity="0.1651"/>
<stop offset="0.3705" stop-color="#EAEBEB" stop-opacity="0.3705"/>
<stop offset="0.5971" stop-color="#D1D2D3" stop-opacity="0.5971"/>
<stop offset="0.8373" stop-color="#AEB0B2" stop-opacity="0.8373"/>
<stop offset="1" stop-color="#929497"/>
</linearGradient>
<linearGradient id="paint2_linear_205_6" x1="49.2404" y1="13.8599" x2="49.2404" y2="8.76701" gradientUnits="userSpaceOnUse">
<stop stop-color="white" stop-opacity="0"/>
<stop offset="0.1651" stop-color="#FAFAFA" stop-opacity="0.1651"/>
<stop offset="0.3705" stop-color="#EAEBEB" stop-opacity="0.3705"/>
<stop offset="0.5971" stop-color="#D1D2D3" stop-opacity="0.5971"/>
<stop offset="0.8373" stop-color="#AEB0B2" stop-opacity="0.8373"/>
<stop offset="1" stop-color="#929497"/>
</linearGradient>
<linearGradient id="paint3_linear_205_6" x1="29.813" y1="7.14082" x2="48.3555" y2="7.14082" gradientUnits="userSpaceOnUse">
<stop stop-color="#26A9E0"/>
<stop offset="1" stop-color="#2B388F"/>
</linearGradient>
<linearGradient id="paint4_linear_205_6" x1="51.1323" y1="6.32212" x2="55.4805" y2="5.97409" gradientUnits="userSpaceOnUse">
<stop stop-color="#BBBDBF"/>
<stop offset="1" stop-color="#404041"/>
</linearGradient>
<linearGradient id="paint5_linear_205_6" x1="58.43" y1="5.42884" x2="46.4536" y2="13.6957" gradientUnits="userSpaceOnUse">
<stop stop-color="#BBBDBF"/>
<stop offset="1" stop-color="#404041"/>
</linearGradient>
<linearGradient id="paint6_linear_205_6" x1="54.1974" y1="0.724547" x2="54.3476" y2="16.0439" gradientUnits="userSpaceOnUse">
<stop stop-color="#BBBDBF"/>
<stop offset="1" stop-color="#404041"/>
</linearGradient>
<linearGradient id="paint7_linear_205_6" x1="16.3549" y1="10.3205" x2="14.1283" y2="12.4409" gradientUnits="userSpaceOnUse">
<stop stop-color="#BBBDBF"/>
<stop offset="1" stop-color="#404041"/>
</linearGradient>
<linearGradient id="paint8_linear_205_6" x1="14.4972" y1="10.7418" x2="12.2396" y2="15.4623" gradientUnits="userSpaceOnUse">
<stop stop-color="#BBBDBF"/>
<stop offset="1" stop-color="#404041"/>
</linearGradient>
<linearGradient id="paint9_linear_205_6" x1="12.5097" y1="6.77066" x2="11.909" y2="19.5366" gradientUnits="userSpaceOnUse">
<stop stop-color="#BBBDBF"/>
<stop offset="0.1949" stop-color="#A8AAAC"/>
<stop offset="0.5905" stop-color="#78797A"/>
<stop offset="1" stop-color="#404041"/>
</linearGradient>
<linearGradient id="paint10_linear_205_6" x1="19.7004" y1="12.8274" x2="19.7004" y2="20.7007" gradientUnits="userSpaceOnUse">
<stop stop-color="#26A9E0"/>
<stop offset="1" stop-color="#2B388F"/>
</linearGradient>
<linearGradient id="paint11_linear_205_6" x1="21.3082" y1="12.8274" x2="21.3082" y2="20.7007" gradientUnits="userSpaceOnUse">
<stop stop-color="#26A9E0"/>
<stop offset="1" stop-color="#2B388F"/>
</linearGradient>
<linearGradient id="paint12_linear_205_6" x1="19.7004" y1="12.9844" x2="19.7004" y2="20.8564" gradientUnits="userSpaceOnUse">
<stop stop-color="#26A9E0"/>
<stop offset="1" stop-color="#2B388F"/>
</linearGradient>
<linearGradient id="paint13_linear_205_6" x1="21.3082" y1="12.9844" x2="21.3082" y2="20.8564" gradientUnits="userSpaceOnUse">
<stop stop-color="#26A9E0"/>
<stop offset="1" stop-color="#2B388F"/>
</linearGradient>
<linearGradient id="paint14_linear_205_6" x1="55.2968" y1="5.30258" x2="58.3005" y2="20.4717" gradientUnits="userSpaceOnUse">
<stop stop-color="#BBBDBF"/>
<stop offset="1" stop-color="#404041"/>
</linearGradient>
<linearGradient id="paint15_linear_205_6" x1="35.024" y1="18.2724" x2="35.024" y2="11.2684" gradientUnits="userSpaceOnUse">
<stop stop-color="#26A9E0"/>
<stop offset="1" stop-color="#2B388F"/>
</linearGradient>
<linearGradient id="paint16_linear_205_6" x1="42.0904" y1="1.10368" x2="33.2311" y2="14.1418" gradientUnits="userSpaceOnUse">
<stop stop-color="#26A9E0"/>
<stop offset="1" stop-color="#2B388F"/>
</linearGradient>
<linearGradient id="paint17_linear_205_6" x1="35.0099" y1="8.81632" x2="35.0099" y2="18.5342" gradientUnits="userSpaceOnUse">
<stop stop-color="#26A9E0"/>
<stop offset="1" stop-color="#2B388F"/>
</linearGradient>
<linearGradient id="paint18_linear_205_6" x1="50.1937" y1="13.8302" x2="50.1937" y2="19.0202" gradientUnits="userSpaceOnUse">
<stop stop-color="#26A9E0"/>
<stop offset="1" stop-color="#2B388F"/>
</linearGradient>
<linearGradient id="paint19_linear_205_6" x1="48.6563" y1="13.8302" x2="48.6563" y2="19.0202" gradientUnits="userSpaceOnUse">
<stop stop-color="#26A9E0"/>
<stop offset="1" stop-color="#2B388F"/>
</linearGradient>
<linearGradient id="paint20_linear_205_6" x1="50.1937" y1="13.9868" x2="50.1937" y2="19.1768" gradientUnits="userSpaceOnUse">
<stop stop-color="#26A9E0"/>
<stop offset="1" stop-color="#2B388F"/>
</linearGradient>
<linearGradient id="paint21_linear_205_6" x1="48.6563" y1="13.9868" x2="48.6563" y2="19.1768" gradientUnits="userSpaceOnUse">
<stop stop-color="#26A9E0"/>
<stop offset="1" stop-color="#2B388F"/>
</linearGradient>
<linearGradient id="paint22_linear_205_6" x1="34.5" y1="11.0654" x2="34.5" y2="22.7087" gradientUnits="userSpaceOnUse">
<stop stop-color="#BBBDBF"/>
<stop offset="1" stop-color="#404041"/>
</linearGradient>
</defs>
</svg>
